inDegrees=no
num_controls=7
num_derivatives=13
num_iterations=111
num_multipliers=7
num_parameters=0
num_slacks=7
num_states=26
objective=0.509987
objective_accelerations=0.038648
objective_balance=0.003183
objective_effort=0.029076
objective_height=0.326337
objective_ligament=0.112743
solver_duration=1365.248058
status=Solve_Succeeded
success=true
DataType=double
version=3
OpenSimVersion=4.5
endheader
time	/jointset/ground_pelvis/pelvis_tilt/value	/jointset/ground_pelvis/pelvis_tx/value	/jointset/ground_pelvis/pelvis_ty/value	/jointset/hip_l/hip_flexion_l/value	/jointset/hip_l/hip_adduction_l/value	/jointset/hip_l/hip_rotation_l/value	/jointset/back/lumbar_extension/value	/jointset/patellofemoral_l/patellar_flexion_l/value	/jointset/knee_l/knee_flexion_l/value	/jointset/knee_l/knee_adduction_l/value	/jointset/knee_l/knee_rotation_l/value	/jointset/ankle_l/ankle_angle_l/value	/jointset/subtalar_l/subtalar_angle_l/value	/jointset/ground_pelvis/pelvis_tilt/speed	/jointset/ground_pelvis/pelvis_tx/speed	/jointset/ground_pelvis/pelvis_ty/speed	/jointset/hip_l/hip_flexion_l/speed	/jointset/hip_l/hip_adduction_l/speed	/jointset/hip_l/hip_rotation_l/speed	/jointset/back/lumbar_extension/speed	/jointset/patellofemoral_l/patellar_flexion_l/speed	/jointset/knee_l/knee_flexion_l/speed	/jointset/knee_l/knee_adduction_l/speed	/jointset/knee_l/knee_rotation_l/speed	/jointset/ankle_l/ankle_angle_l/speed	/jointset/subtalar_l/subtalar_angle_l/speed	/forceset/tau_hip_flexion_l	/forceset/tau_hip_adduction_l	/forceset/tau_hip_rotation_l	/forceset/tau_knee_flexion_l	/forceset/tau_ankle_angle_l	/forceset/tau_subtalar_angle_l	/forceset/tau_lumbar_extension	lambda_cid13_p0	lambda_cid13_p1	lambda_cid13_p2	lambda_cid13_p3	lambda_cid13_p4	lambda_cid13_p5	lambda_cid14_p0	/jointset/ground_pelvis/pelvis_tilt/accel	/jointset/ground_pelvis/pelvis_tx/accel	/jointset/ground_pelvis/pelvis_ty/accel	/jointset/hip_l/hip_flexion_l/accel	/jointset/hip_l/hip_adduction_l/accel	/jointset/hip_l/hip_rotation_l/accel	/jointset/back/lumbar_extension/accel	/jointset/patellofemoral_l/patellar_flexion_l/accel	/jointset/knee_l/knee_flexion_l/accel	/jointset/knee_l/knee_adduction_l/accel	/jointset/knee_l/knee_rotation_l/accel	/jointset/ankle_l/ankle_angle_l/accel	/jointset/subtalar_l/subtalar_angle_l/accel	gamma_cid13_p0	gamma_cid13_p1	gamma_cid13_p2	gamma_cid13_p3	gamma_cid13_p4	gamma_cid13_p5	gamma_cid14_p0
1	-0.1391375400537602	-0.05793157276119049	0.7368237435946924	1.193880447934075	-0.3325808453083791	0.0102404890881324	-0.9599307447314722	1.183855693825323	1.18385569382535	-0.09025166182397681	-0.1744841484740721	0.2106149529163317	0.03170147638982901	0.1028677595964047	0.01909314060380701	0.07142351921164077	-0.3028189056612839	0.002609864028165069	-0.08061874816783023	-0.0008598379529014958	-0.2044978136316331	-0.2044978136316714	0.005597907291274046	0.003463937639898662	-0.01578456658142494	-0.00161756962519098	-0.3910198542410223	0.07805867601775819	-0.004754192353989027	-0.2765875031849409	0.02456698158656083	0.008407876845034131	0.4303334340247585	-42.86391223756494	5.412079444854646	-3.097276940144518	14.94745782158861	-784.1589475454457	-31.39042927651331	-1.357972718785321	1.065165472869279	0.0293137729378792	1.238773193424003	-4.513772185523427	0.1398549164586745	-1.734127228729752	0.1466410155447005	-4.378028071750894	-4.378028071750939	0.2327789912390191	0.1153660037327882	-1.183213703593183	-0.2611949567351456	-1.486447302828207e-08	-1.935705101597173e-08	7.451707243041889e-08	7.342611848753751e-09	-2.721870497885346e-08	4.702931482368993e-08	-1.617249618485953e-08
1.01	-0.1380565317959325	-0.05773910080607116	0.7375996360741318	1.190628040418961	-0.3325470875924512	0.009347252370463474	-0.9599303351436839	1.181592261438307	1.181592261438345	-0.09018262494511185	-0.1744430905693981	0.2103980922925967	0.03167312688432673	0.113285504998629	0.01941034641177819	0.08373857180312345	-0.3475972507720404	0.004151435521494671	-0.09801717587245874	0.001054455805025613	-0.2481812030869269	-0.2481812030869292	0.008208321368718728	0.004746218608104962	-0.02759467170979705	-0.004043133461947265	-0.3907108529011897	0.07836035033206798	-0.004801649987148222	-0.2760289084316181	0.02446997990065156	0.008484032809713727	0.4305166890188733	-42.87881994210519	5.369399961063743	-3.076519915578299	14.78599387094513	-784.0699449990547	-31.39643949775132	-1.399135451394455	1.022819425811651	0.03429085466819991	1.225404031076232	-4.450066128825434	0.1627638818256607	-1.741006077151591	0.2307286015309014	-4.362371195491083	-4.362371195485687	0.2749907294281207	0.1344654221138313	-1.180977500216144	-0.2318634678873717	-2.070877470141461e-08	-2.990481209259212e-08	9.32375040166711e-08	1.230580413865138e-08	-3.259551037511354e-08	5.039734965072276e-08	-2.037845243583933e-08
1.02	-0.1368727980136962	-0.05754318341888387	0.7384981856272997	1.186929809361746	-0.3324976230383744	0.008280370268583474	-0.9599074016092864	1.178892219794119	1.178892219794177	-0.09008752030278144	-0.1743892485992891	0.2100629169010261	0.03162079646630891	0.1234128644773616	0.01978222701739798	0.0959549339573368	-0.3919836140817418	0.005751231657036342	-0.1153478250099799	0.003644951387536914	-0.2918196650651202	-0.2918196650650865	0.01081145998340357	0.006020750726277278	-0.03944752014844707	-0.00641375212836704	-0.3904018515613626	0.0786620246463923	-0.004849107620237476	-0.2754703136782899	0.02437297821474984	0.008560188774413195	0.4306999440129784	-42.90602247604787	5.328646522043967	-3.055811169457189	14.677954310562	-784.1427533952331	-31.39632897116335	-1.448911828536354	1.00708828817096	0.0402487324675984	1.219035105970134	-4.435375825312406	0.1514998449010698	-1.720571515308349	0.2818813804615625	-4.369042576330808	-4.369042576330836	0.2313238986870727	0.1138162337259311	-1.191762365648773	-0.2502059226678701	-2.609367867821954e-08	-4.140321306876045e-08	1.100294390429749e-07	1.640996839399753e-08	-3.899696980510962e-08	5.214563913285605e-08	-2.422414487684921e-08
1.03	-0.135589140964183	-0.0573431007814349	0.7395184494511837	1.182789306661951	-0.332431851553632	0.007040589174350821	-0.9598542451792985	1.175755996022964	1.175755996022937	-0.08996648162125173	-0.1743226855526739	0.2096092590204614	0.03154515839588282	0.133280151257681	0.02026090887225336	0.1080860065802297	-0.436089365265875	0.007413374152739728	-0.1325952373196442	0.007193267925234465	-0.3354210387138352	-0.3354210387138452	0.01339105881685935	0.007288048742110261	-0.05126575087457504	-0.008693956431208625	-0.3912485438612923	0.07921793629353754	-0.004912970568544903	-0.2743114795227108	0.02395008968184211	0.008740165155957316	0.4321750215570453	-43.05814878283635	5.252854953497393	-3.016012477323582	14.32721972852413	-784.8288611732316	-31.38393952256525	-1.507692859824492	0.9707878944057948	0.05567329784234063	1.208360583921656	-4.394043762137215	0.1751072635436383	-1.72487863681804	0.4223467874598627	-4.355071554775308	-4.355071554781857	0.2704807257778043	0.1326419270483813	-1.174110675359155	-0.2139481030493593	-3.147389492342929e-08	-5.291131445206702e-08	1.268016955329526e-07	2.050536705715438e-08	-4.540888488851116e-08	5.387740060126587e-08	-2.806616115653286e-08
1.04	-0.1342079632425744	-0.05713743224826786	0.7406596674499918	1.178208572650881	-0.3323491514816007	0.005628723447416346	-0.9597593975845127	1.172183881156191	1.172183881156088	-0.08981980638136332	-0.1742435584575942	0.2090379673827821	0.03144731419863721	0.1429169988957374	0.02089940616101264	0.1201457689421302	-0.4800298763369439	0.009136949113980292	-0.1497647515502157	0.01198318434438927	-0.3789978841878902	-0.3789978841879432	0.01593877165443684	0.008533560419394534	-0.06297427157127805	-0.01085497749233561	-0.3920952361612315	0.07977384794069556	-0.004976833516792713	-0.2731526453671268	0.02352720114894203	0.008920141537519318	0.4336500991010991	-43.22286892828378	5.178959766794268	-2.976163648245685	14.02919065896542	-785.6816053707253	-31.36638210249534	-1.575917233690732	0.9610004597183901	0.07221181924836861	1.204773053771665	-4.402327802699546	0.1637863380084934	-1.704991899489844	0.5302013567530074	-4.364136941398811	-4.36413694139872	0.2249466995114374	0.1094589660161407	-1.169820359763801	-0.2263692743249739	-3.469090289385214e-08	-6.39269701686667e-08	1.410302956830767e-07	2.096685285285477e-08	-4.971836566615515e-08	5.305831302271843e-08	-3.128187463582087e-08
